<svg width="208" height="332" viewBox="0 0 208 332" fill="none" xmlns="http://www.w3.org/2000/svg">
<g filter="url(#filter0_d_1_16)">
<path d="M179.005 5H29.9946C29.9982 5.17604 30 5.35255 30 5.52951C30 18.6893 19.9264 29.3574 7.5 29.3574C7.3329 29.3574 7.16623 29.3554 7 29.3516V303.648C7.16623 303.645 7.3329 303.643 7.5 303.643C19.9264 303.643 30 314.311 30 327.47C30 327.647 29.9982 327.824 29.9946 328H179.005C179.002 327.824 179 327.647 179 327.47C179 314.488 188.804 303.93 201 303.648V29.3516C188.804 29.07 179 18.5123 179 5.52951C179 5.35255 179.002 5.17604 179.005 5Z" fill="white"/>
<path d="M30.5 327.47C30.5 314.062 20.2292 303.143 7.5 303.143V29.8574C20.2292 29.8574 30.5 18.938 30.5 5.52951C30.5 5.51967 30.5 5.50983 30.5 5.5H178.5C178.5 5.50983 178.5 5.51967 178.5 5.52951C178.5 18.5852 188.237 29.2802 200.5 29.8348V303.165C188.237 303.72 178.5 314.415 178.5 327.47C178.5 327.48 178.5 327.49 178.5 327.5H30.5C30.5 327.49 30.5 327.48 30.5 327.47Z" stroke="#1B1F23" stroke-opacity="0.15"/>
</g>
<defs>
<filter id="filter0_d_1_16" x="4" y="3" width="200" height="329" filterUnits="userSpaceOnUse" color-interpolation-filters="sRGB">
<feFlood flood-opacity="0" result="BackgroundImageFix"/>
<feColorMatrix in="SourceAlpha" type="matrix" values="0 0 0 0 0 0 0 0 0 0 0 0 0 0 0 0 0 0 127 0" result="hardAlpha"/>
<feOffset dy="1"/>
<feGaussianBlur stdDeviation="1.5"/>
<feComposite in2="hardAlpha" operator="out"/>
<feColorMatrix type="matrix" values="0 0 0 0 0 0 0 0 0 0 0 0 0 0 0 0 0 0 0.16 0"/>
<feBlend mode="normal" in2="BackgroundImageFix" result="effect1_dropShadow_1_16"/>
<feBlend mode="normal" in="SourceGraphic" in2="effect1_dropShadow_1_16" result="shape"/>
</filter>
</defs>
</svg>
