<?xml version="1.0" encoding="utf-8"?>
<!-- Generator: Adobe Illustrator 27.5.0, SVG Export Plug-In . SVG Version: 6.00 Build 0)  -->
<svg version="1.1" id="Слой_1" xmlns="http://www.w3.org/2000/svg" xmlns:xlink="http://www.w3.org/1999/xlink" x="0px" y="0px"
	 viewBox="0 0 3200 2000" style="enable-background:new 0 0 3200 2000;" xml:space="preserve">
<rect x="0" style="fill:#FFFFFF;" width="3200" height="2000"/>
<g>
	<g>
		<path style="fill:#EBF3FA;" d="M339.85,1795.38c0,0-320.966-344.614-54.28-717.709
			c236.621-331.035,512.498-308.406,714.903-174.07c86.207,57.216,334.753,7.052,546.296-329.789
			c288.488-459.358,1288.491-180.756,1106.159,525.979c-88.235,342.009,268.537,354.44,86.747,696.313L339.85,1795.38z"/>
		<path style="fill:#DFEBFD;" d="M2942.658,1337.952c-22.601-83.448-163.419-57.371-163.419-57.371s-95.618,146.034-123.434,149.511
			c-27.816,3.478,57.37-140.818,57.37-140.818c-53.893-5.215-191.234,60.848-191.234,60.848s8.692,170.373-19.124,166.896
			c-27.815-3.478,0-151.25,0-151.25c-52.155,15.646-100.833,76.494-100.833,76.494c-60.848,99.095,69.54,172.111,69.54,172.111
			s1.738,59.108-34.77,126.91l-0.002,0.002c0,0-8.239,12.518-16.614,33.796h14.219c1.161-3.813,2.441-7.498,3.858-11.036
			c0-0.027,0.009-0.046,0.027-0.064c0.021-0.052,0.042-0.102,0.063-0.153c0.974-2.197,2.374-5.323,4.118-9.132
			c0.003-0.005,0.006-0.01,0.008-0.014c0-0.01,0.009-0.01,0.009-0.019c4.344-8.504,7.278-14.786,9.135-19.321
			c0.007-0.015,0.012-0.028,0.015-0.043c13.017-26.694,31.768-61.476,44.273-68.771c0,0-1.573-2.214-3.043-6.521
			c0.971,2.079,1.982,4.248,3.043,6.521c24.34,52.155,146.034,60.848,213.836,46.939c67.801-13.908,38.246-33.032,1.738-64.069
			c-36.509-31.037-113.002-22.855-135.603-35.025c-22.601-12.169,10.431-24.339,55.632-20.861
			c45.201,3.477,67.802,48.678,140.818,55.632s128.648-130.388,128.648-130.388c-50.416,15.646-140.818-12.17-144.295-29.555
			c-3.478-17.385,130.387-15.646,151.249-20.861C2928.75,1463.124,2965.258,1421.399,2942.658,1337.952z"/>
		<path style="fill:#AFCDFB;" d="M1023.549,1360.72c0,0,6.215,49.573-3.081,50.16c-9.296,0.586-2.943-55.738-2.943-55.738
			s-44.202-24.706-62.181-24.074c0,0,25.312,49.589,16.158,47.869c-9.154-1.72-37.89-52.098-37.89-52.098
			s-46.169-11.517-55.364,15.698c-9.195,27.214,2.063,41.794,8.876,43.949c6.812,2.154,51.242,4.305,49.734,9.999
			c-1.507,5.694-32.054,13.078-48.455,6.862c0,0,15.652,46.681,40.009,45.861c24.357-0.819,32.773-15.35,47.834-15.582
			c15.061-0.232,25.768,4.477,18.024,8.053c-7.743,3.575-32.944-0.696-45.684,8.854c-12.74,9.549-22.931,15.289-0.729,21.283
			c22.202,5.993,62.738,5.589,71.872-11.212c0.398-0.732,0.778-1.431,1.142-2.101c-0.575,1.398-1.142,2.101-1.142,2.101
			c4,2.675,9.511,14.596,13.285,23.714c0.522,1.544,1.368,3.689,2.64,6.608l0,0c0.507,1.315,0.912,2.392,1.191,3.143
			c6.708,20.318,0.406,54.307,0.406,54.307l4.725,1.586c12.765-33.861-4.166-63.362-4.166-63.362
			c-10.727-23.229-8.946-42.796-8.946-42.796s44.728-21.56,26.567-55.662C1055.431,1388.142,1040.526,1366.971,1023.549,1360.72z"/>
		<path style="fill:#CDE0FB;" d="M689.067,1581.973c-4.005-61.146,96.408-75.992,96.408-75.992s97.647,75.97,117.098,71.914
			c19.451-4.055-70.803-81.254-70.803-81.254c34.941-15.871,142.205-3.107,142.205-3.107s33.289,116.24,51.144,107.522
			c17.854-8.718-34.728-101.421-34.728-101.421c38.565-1.483,85.178,28.142,85.178,28.142
			c63.554,52.478-7.112,131.377-7.112,131.377s12.406,40.034,52.454,77.116l0.002,0.001c0,0,8.398,6.503,18.901,18.848l-9.535,3.265
			c-1.654-2.29-3.359-4.467-5.122-6.515c-0.006-0.019-0.017-0.028-0.033-0.036c-0.025-0.03-0.052-0.059-0.077-0.089
			c-1.158-1.25-2.814-3.024-4.858-5.178c-0.002-0.003-0.005-0.006-0.008-0.008c-0.002-0.007-0.008-0.005-0.01-0.011
			c-4.865-4.705-8.276-8.243-10.562-10.858c-0.008-0.008-0.014-0.017-0.019-0.025c-14.857-14.911-35.417-33.929-45.479-35.949
			c0,0,0.547-1.845,0.543-5.071c-0.173,1.617-0.354,3.304-0.543,5.071c-4.346,40.562-83.953,74.332-132.611,80.574
			c-48.658,6.241-33.231-13.368-15.876-42.563c17.354-29.194,70.527-41.271,82.887-54.621c12.361-13.35-12.583-13.926-42.094-1.216
			c-29.511,12.71-34.288,48.209-81.653,69.637c-47.365,21.429-116.204-57.894-116.204-57.894
			c37.399-1.084,91.632-40.492,89.972-52.948s-91.024,19.445-106.211,20.738C727.133,1662.714,693.072,1643.118,689.067,1581.973z"
			/>
		<g>
			<path style="fill:#6BB7BF;" d="M2569.627,485.303c0,0-10.704-8.083-13.467-20.158c-2.05-8.962,3.094-20.21,3.514-20.719
				l-14.342-2.857c0,0-4.248,19.032,2.944,31.687c2.204,3.878,8.597,9.216,12.711,11.212
				C2565.521,486.668,2569.627,485.303,2569.627,485.303z"/>
			<path style="fill:#86D1CD;" d="M2594.549,476.576l13.047,14.93c0,0-36.881,9.794-57.964-16.298
				C2549.632,475.207,2580.682,485.707,2594.549,476.576z"/>
		</g>
		<g>
			<path style="fill:#F99746;" d="M1922.037,289.18c0,0,13.314-22.093,36.798-8.575l12.865-14c0,0-13.438-8.899-41.862,10.454
				C1911.241,289.723,1922.037,289.18,1922.037,289.18z"/>
			<path style="fill:#F99746;" d="M1908.886,310.846c0,0-4.473-24.084,35.177-41.852c0,0-14.225,8.066-17.192,32.552
				L1908.886,310.846z"/>
		</g>
		<g>
			<path style="fill:#5685D8;" d="M1100.83,1006.231c0,0-21.798-8.588-13.238-31.663l-14.481-9.409c0,0-5.941,13.381,15.686,35.915
				C1102.946,1015.818,1100.83,1006.231,1100.83,1006.231z"/>
			<path style="fill:#739AF0;" d="M1122.22,1014.737c0,0-20.895,7.643-42.797-25.185c0,0,9.373,11.522,31.751,10.482
				L1122.22,1014.737z"/>
		</g>
		<path style="fill:#F1A34F;" d="M1163.644,703.961c0,0,12.032-7.599,13.298-16.781c0,0,11.715,0.633,14.248,4.433
			c0,0-5.383,15.198-11.715,18.047C1179.475,709.661,1165.227,710.61,1163.644,703.961z"/>
		<path style="fill:#F1A34F;" d="M373.936,1253.173c0,0-12.835-8.106-14.186-17.901c0,0-12.497,0.676-15.199,4.729
			c0,0,5.742,16.213,12.497,19.252C357.048,1259.252,372.248,1260.266,373.936,1253.173z"/>
		<path style="fill:#86D1CD;" d="M1812.1,537.526c0,0-17.928-11.322-19.814-25.003c0,0-17.455,0.944-21.229,6.605
			c0,0,8.021,22.645,17.455,26.89C1788.511,546.018,1809.74,547.433,1812.1,537.526z"/>
		<g>
			<path style="fill:#CDE0FB;" d="M2912.78,484.878l111.444,348.923c4.917,15.394-3.66,32.021-19.054,36.938l-612.101,195.503
				c-15.395,4.917-32.021-3.66-36.939-19.055l-111.443-348.923c-4.917-15.394,3.66-32.021,19.054-36.938l612.101-195.503
				C2891.236,460.907,2907.863,469.484,2912.78,484.878z"/>
			<g>
				<path style="fill:#AFCDFB;" d="M2560.767,928.412l-163.138,52.105c-6.901,2.205-14.353-1.639-16.558-8.541l-0.5-1.568
					c-2.205-6.902,1.639-14.353,8.541-16.558l163.137-52.105c6.902-2.204,14.354,1.639,16.558,8.542l0.501,1.567
					C2571.512,918.756,2567.669,926.208,2560.767,928.412z"/>
				<path style="fill:#AFCDFB;" d="M2775.748,859.748l-163.137,52.105c-6.902,2.205-14.354-1.639-16.559-8.542l-0.5-1.567
					c-2.205-6.902,1.639-14.353,8.541-16.558l163.137-52.105c6.902-2.205,14.354,1.639,16.558,8.542l0.501,1.567
					C2786.494,850.092,2782.65,857.544,2775.748,859.748z"/>
				<g>
					<path style="fill:#AFCDFB;" d="M2581.576,741.87c1.899,5.948,2.42,11.151,1.561,15.613c-1.077,5.629-4.34,9.314-9.789,11.054
						c-5.448,1.741-10.243,0.629-14.384-3.333c-3.285-3.138-5.878-7.679-7.777-13.627c-1.899-5.947-2.434-11.125-1.601-15.536
						c1.077-5.629,4.359-9.32,9.847-11.073c5.486-1.753,10.3-0.647,14.441,3.315C2577.109,731.394,2579.677,735.923,2581.576,741.87
						z M2574.084,744.231c-1.19-3.729-2.614-6.727-4.268-8.995c-2.521-3.39-5.258-4.612-8.212-3.668
						c-3.032,0.968-4.578,3.539-4.642,7.709c-0.072,2.82,0.493,6.112,1.697,9.88c3.241,10.15,7.451,14.396,12.632,12.742
						c2.993-0.956,4.509-3.559,4.546-7.807C2575.885,751.325,2575.301,748.037,2574.084,744.231z"/>
					<path style="fill:#AFCDFB;" d="M2615.072,731.171c1.9,5.948,2.42,11.151,1.562,15.613c-1.078,5.629-4.341,9.314-9.789,11.054
						c-5.449,1.74-10.243,0.629-14.384-3.333c-3.286-3.137-5.879-7.679-7.778-13.627c-1.899-5.947-2.433-11.125-1.601-15.536
						c1.077-5.629,4.359-9.32,9.847-11.073c5.487-1.753,10.3-0.648,14.442,3.315
						C2610.605,720.695,2613.173,725.224,2615.072,731.171z M2607.58,733.532c-1.19-3.729-2.613-6.727-4.268-8.995
						c-2.521-3.39-5.258-4.612-8.212-3.669c-3.031,0.968-4.578,3.539-4.642,7.71c-0.072,2.82,0.494,6.113,1.697,9.88
						c3.242,10.149,7.452,14.396,12.632,12.742c2.993-0.956,4.509-3.558,4.547-7.807
						C2609.381,740.627,2608.797,737.338,2607.58,733.532z"/>
					<path style="fill:#AFCDFB;" d="M2665.835,714.958c1.899,5.948,2.42,11.152,1.562,15.613c-1.078,5.629-4.341,9.314-9.789,11.054
						c-5.449,1.741-10.244,0.629-14.385-3.333c-3.285-3.137-5.877-7.679-7.777-13.627c-1.899-5.947-2.434-11.125-1.601-15.536
						c1.077-5.629,4.359-9.32,9.847-11.073c5.486-1.753,10.301-0.647,14.442,3.315
						C2661.368,704.482,2663.936,709.011,2665.835,714.958z M2658.344,717.319c-1.191-3.729-2.615-6.727-4.269-8.995
						c-2.521-3.39-5.258-4.612-8.212-3.668c-3.031,0.968-4.578,3.538-4.642,7.709c-0.072,2.82,0.493,6.113,1.697,9.88
						c3.241,10.149,7.452,14.396,12.632,12.742c2.993-0.956,4.509-3.558,4.547-7.807
						C2660.143,724.413,2659.56,721.125,2658.344,717.319z"/>
					<path style="fill:#AFCDFB;" d="M2699.332,704.259c1.899,5.948,2.42,11.152,1.561,15.613c-1.078,5.629-4.341,9.314-9.789,11.054
						c-5.449,1.741-10.243,0.629-14.384-3.333c-3.286-3.137-5.878-7.679-7.778-13.627c-1.899-5.947-2.434-11.125-1.6-15.536
						c1.076-5.629,4.358-9.32,9.846-11.073c5.486-1.752,10.301-0.647,14.442,3.315
						C2694.865,693.784,2697.432,698.312,2699.332,704.259z M2691.84,706.62c-1.191-3.729-2.614-6.727-4.269-8.994
						c-2.521-3.39-5.257-4.612-8.212-3.669c-3.031,0.968-4.578,3.539-4.641,7.71c-0.073,2.82,0.493,6.112,1.696,9.88
						c3.241,10.149,7.452,14.396,12.632,12.742c2.993-0.956,4.509-3.558,4.547-7.807
						C2693.64,713.714,2693.056,710.427,2691.84,706.62z"/>
					<path style="fill:#AFCDFB;" d="M2732.828,693.56c1.899,5.948,2.42,11.151,1.561,15.612c-1.077,5.63-4.34,9.314-9.788,11.055
						c-5.449,1.74-10.244,0.629-14.384-3.334c-3.287-3.137-5.879-7.679-7.778-13.627c-1.899-5.947-2.434-11.125-1.601-15.536
						c1.077-5.629,4.359-9.32,9.847-11.073c5.486-1.752,10.3-0.647,14.441,3.315C2728.361,683.085,2730.929,687.613,2732.828,693.56
						z M2725.336,695.921c-1.19-3.729-2.614-6.727-4.268-8.994c-2.521-3.39-5.258-4.612-8.212-3.669
						c-3.032,0.968-4.578,3.539-4.642,7.71c-0.072,2.82,0.493,6.112,1.697,9.88c3.241,10.15,7.451,14.396,12.632,12.742
						c2.993-0.956,4.509-3.558,4.546-7.807C2727.137,703.016,2726.552,699.728,2725.336,695.921z"/>
					<path style="fill:#AFCDFB;" d="M2766.324,682.862c1.9,5.948,2.42,11.151,1.562,15.612c-1.078,5.63-4.341,9.314-9.789,11.055
						c-5.449,1.74-10.243,0.629-14.384-3.333c-3.286-3.138-5.879-7.679-7.778-13.627c-1.899-5.947-2.433-11.124-1.601-15.536
						c1.077-5.629,4.359-9.32,9.847-11.073c5.486-1.752,10.3-0.647,14.442,3.315
						C2761.857,672.386,2764.425,676.915,2766.324,682.862z M2758.833,685.223c-1.191-3.729-2.614-6.727-4.269-8.995
						c-2.521-3.39-5.258-4.612-8.212-3.669c-3.031,0.969-4.578,3.539-4.642,7.71c-0.072,2.82,0.494,6.112,1.697,9.88
						c3.242,10.15,7.452,14.396,12.633,12.742c2.992-0.956,4.508-3.558,4.546-7.807
						C2760.633,692.317,2760.049,689.029,2758.833,685.223z"/>
					<path style="fill:#AFCDFB;" d="M2817.087,666.648c1.899,5.948,2.42,11.151,1.562,15.613c-1.078,5.629-4.341,9.314-9.789,11.054
						c-5.449,1.74-10.244,0.629-14.384-3.334c-3.286-3.138-5.878-7.679-7.778-13.627c-1.899-5.947-2.434-11.125-1.601-15.536
						c1.077-5.629,4.359-9.32,9.847-11.073c5.486-1.752,10.301-0.648,14.442,3.315
						C2812.62,656.173,2815.188,660.701,2817.087,666.648z M2809.596,669.01c-1.191-3.729-2.615-6.727-4.269-8.995
						c-2.521-3.39-5.258-4.612-8.212-3.668c-3.031,0.968-4.578,3.539-4.642,7.71c-0.072,2.82,0.493,6.113,1.697,9.88
						c3.241,10.15,7.452,14.397,12.632,12.742c2.993-0.956,4.509-3.559,4.547-7.807
						C2811.395,676.104,2810.812,672.816,2809.596,669.01z"/>
					<path style="fill:#AFCDFB;" d="M2850.584,655.95c1.899,5.948,2.42,11.151,1.561,15.613c-1.078,5.629-4.341,9.315-9.789,11.054
						c-5.449,1.741-10.243,0.629-14.384-3.333c-3.286-3.137-5.878-7.679-7.778-13.627c-1.899-5.947-2.434-11.125-1.6-15.536
						c1.076-5.629,4.358-9.32,9.846-11.073c5.486-1.753,10.301-0.648,14.442,3.315
						C2846.117,645.475,2848.684,650.003,2850.584,655.95z M2843.092,658.311c-1.191-3.729-2.614-6.727-4.269-8.995
						c-2.521-3.39-5.257-4.612-8.212-3.669c-3.031,0.968-4.578,3.539-4.641,7.71c-0.072,2.82,0.493,6.112,1.696,9.88
						c3.242,10.149,7.452,14.396,12.633,12.742c2.992-0.956,4.508-3.558,4.546-7.807
						C2844.892,665.405,2844.308,662.117,2843.092,658.311z"/>
					<path style="fill:#AFCDFB;" d="M2884.08,645.251c1.899,5.948,2.42,11.152,1.561,15.613c-1.077,5.629-4.34,9.314-9.788,11.054
						c-5.449,1.741-10.244,0.629-14.384-3.334c-3.287-3.137-5.879-7.679-7.778-13.627c-1.899-5.947-2.434-11.125-1.601-15.536
						c1.077-5.629,4.359-9.32,9.847-11.073c5.486-1.752,10.3-0.647,14.441,3.315C2879.613,634.776,2882.181,639.304,2884.08,645.251
						z M2876.588,647.612c-1.19-3.729-2.614-6.727-4.268-8.995c-2.521-3.39-5.258-4.612-8.212-3.668
						c-3.032,0.968-4.579,3.539-4.642,7.71c-0.072,2.82,0.493,6.112,1.696,9.88c3.242,10.149,7.452,14.396,12.633,12.742
						c2.993-0.956,4.509-3.558,4.547-7.807C2878.389,654.706,2877.804,651.419,2876.588,647.612z"/>
					<path style="fill:#AFCDFB;" d="M2917.577,634.552c1.899,5.948,2.42,11.152,1.562,15.613c-1.078,5.629-4.342,9.314-9.789,11.054
						c-5.449,1.741-10.244,0.629-14.385-3.333c-3.285-3.138-5.878-7.679-7.777-13.627c-1.899-5.947-2.434-11.125-1.601-15.536
						c1.077-5.629,4.358-9.32,9.847-11.073c5.486-1.752,10.3-0.648,14.441,3.315C2913.11,624.077,2915.678,628.606,2917.577,634.552
						z M2910.085,636.914c-1.19-3.729-2.614-6.727-4.269-8.995c-2.521-3.39-5.257-4.612-8.211-3.668
						c-3.032,0.968-4.578,3.539-4.643,7.71c-0.071,2.82,0.494,6.113,1.697,9.88c3.242,10.15,7.453,14.397,12.633,12.742
						c2.993-0.956,4.509-3.558,4.547-7.807C2911.885,644.008,2911.301,640.72,2910.085,636.914z"/>
				</g>
				<path style="fill:#AFCDFB;" d="M2469.41,654.414l-159.65,50.991c-6.902,2.205-14.354-1.639-16.558-8.541l0,0
					c-2.204-6.902,1.64-14.354,8.541-16.558l159.65-50.992c6.901-2.204,14.353,1.639,16.558,8.542l0,0
					C2480.155,644.758,2476.312,652.209,2469.41,654.414z"/>
				<g>
					<g>
						<path style="fill:#AFCDFB;" d="M2857.182,560.001c-1.455-4.556-4.379-8.241-8.086-10.702
							c-1.077-0.715-2.539-0.328-3.122,0.827l-0.505,1c-0.484,0.96-0.191,2.139,0.702,2.739c2.681,1.799,4.794,4.478,5.85,7.785
							c1.057,3.308,0.888,6.715-0.254,9.734c-0.38,1.006,0.063,2.137,1.016,2.639l0.991,0.522c1.144,0.603,2.56,0.071,3.022-1.135
							C2858.391,569.255,2858.637,564.557,2857.182,560.001z"/>
					</g>
					<g>
						<path style="fill:#AFCDFB;" d="M2867.525,556.697c-2.393-7.494-7.375-13.447-13.645-17.194
							c-1.063-0.635-2.444-0.208-3.002,0.896l-0.285,0.566c-0.513,1.015-0.139,2.237,0.834,2.824
							c5.234,3.16,9.387,8.149,11.387,14.412c2,6.263,1.51,12.735-0.925,18.344c-0.452,1.043-0.048,2.255,0.957,2.785l0.562,0.296
							c1.095,0.577,2.468,0.124,2.966-1.009C2869.311,571.93,2869.919,564.191,2867.525,556.697z"/>
					</g>
					<g>
						<path style="fill:#AFCDFB;" d="M2876.587,553.803c-3.2-10.023-9.948-17.946-18.427-22.828
							c-1.066-0.614-2.433-0.191-2.986,0.907l0,0c-0.515,1.019-0.143,2.26,0.848,2.83c7.579,4.358,13.613,11.441,16.474,20.398
							c2.861,8.956,2.05,18.225-1.6,26.17c-0.477,1.038-0.062,2.265,0.948,2.797l0,0c1.089,0.574,2.447,0.126,2.961-0.992
							C2878.883,574.193,2879.788,563.826,2876.587,553.803z"/>
					</g>
					<g>
						<path style="fill:#AFCDFB;" d="M2886.408,550.667c-4.077-12.765-12.748-22.813-23.605-28.896
							c-1.073-0.601-2.433-0.188-2.986,0.91l-0.494,0.979c-0.518,1.026-0.138,2.275,0.863,2.838
							c9.689,5.45,17.421,14.417,21.062,25.816c3.641,11.398,2.538,23.187-2.198,33.245c-0.489,1.039-0.074,2.277,0.941,2.813
							l0.971,0.512c1.088,0.574,2.436,0.122,2.962-0.99C2889.243,576.644,2890.485,563.431,2886.408,550.667z"/>
					</g>
				</g>
			</g>
		</g>
		<g>
			<rect x="2126.001" y="787.846" style="fill:#FFA412;" width="348.493" height="1003.786"/>
			<rect x="1205.329" y="787.846" style="fill:#FFB93E;" width="920.672" height="1003.786"/>
			
				<rect x="1630.537" y="853.673" transform="matrix(-1.836970e-16 1 -1 -1.836970e-16 2979.6736 -351.656)" style="fill:#FFA412;" width="70.256" height="920.672"/>
			
				<rect x="2265.12" y="1139.762" transform="matrix(-1.836970e-16 1 -1 -1.836970e-16 3614.2563 -986.2388)" style="fill:#FA9712;" width="70.256" height="348.493"/>
			<path style="fill:#F99746;" d="M1840.104,798.599c0,0,208-135.159,349.386-91.73l-29.168,27.243l13.144,45.78
				c0,0-157.222-51.203-337.664,26.408L1840.104,798.599z"/>
			<path style="fill:#F99746;" d="M1828.472,767.989c0,0-36.697-4.435-91.397-11.958
				c-145.212-19.975-417.205-61.764-466.024-100.433c-76.713-60.746,105.065-318.742,183.748-354.552
				C1533.482,265.268,1828.472,767.989,1828.472,767.989z"/>
			<path style="fill:#F99746;" d="M2403.938,446.721c13.112,63.915-580.87,340.039-580.87,340.039s10.809-29.215,28.386-74.978
				c0,0,0.025-0.039,0.051-0.077c64.218-167.111,218.922-554.914,269.759-549.547c5.105,0.529,11.081,2.355,17.752,5.279
				C2217.096,201.794,2391.863,387.858,2403.938,446.721z"/>
			<path style="fill:#ED7D2B;" d="M2134.006,224.271c-36.272,63.013-278.706,480.92-282.501,487.434
				c64.218-167.111,218.922-554.914,269.759-549.547c0,0,10.069-0.288,17.752,5.279
				C2148.281,174.189,2154.033,189.476,2134.006,224.271z"/>
			<path style="fill:#ED7D2B;" d="M1737.172,756.03h-0.098c-145.212-19.975-417.205-61.764-466.024-100.433
				c-22.044-62.093,35.153-67.152,76.778-71.522C1389.421,579.706,1737.172,756.03,1737.172,756.03z"/>
			<path style="fill:#ED7D2B;" d="M1717.69,787.767c0,0,33.298-75.749,98.833-79.943c68.445-4.38,107.321,79.943,107.321,79.943
				H1717.69z"/>
			<rect x="1177.417" y="787.846" style="fill:#FFC261;" width="963.354" height="138.061"/>
			<rect x="2140.771" y="787.846" style="fill:#FA9712;" width="363.099" height="138.061"/>
			<path style="fill:#F99746;" d="M1751.434,776.283c0,0-188.682-59.769-316.004-20.253
				c-146.756,45.547-138.06,226.634-138.06,226.634l34.515-14.19l46.595,21.859c0,0,7.862-191.75,127.514-218.595
				C1609.453,748.526,1751.434,776.283,1751.434,776.283z"/>
			<rect x="1584.382" y="787.846" style="fill:#FFA412;" width="70.256" height="1003.685"/>
		</g>
		<g>
			
				<rect x="974.526" y="492.24" transform="matrix(0.9482 -0.3178 0.3178 0.9482 -135.2809 351.0942)" style="fill:#ED7D2B;" width="68.028" height="195.944"/>
			
				<rect x="801.227" y="531.606" transform="matrix(0.9482 -0.3178 0.3178 0.9482 -153.8807 315.8152)" style="fill:#F99746;" width="179.72" height="195.944"/>
			
				<rect x="885.736" y="544.211" transform="matrix(0.3178 0.9482 -0.9482 0.3178 1210.1279 -413.7551)" style="fill:#FFB93E;" width="13.714" height="179.72"/>
			
				<rect x="1003.188" y="560.691" transform="matrix(0.3178 0.9482 -0.9482 0.3178 1252.9291 -551.9741)" style="fill:#F69B34;" width="13.714" height="68.028"/>
			<path style="fill:#FFB93E;" d="M898.099,520.721c0,0,44.295-41.221,83.73-44.416l-5.64,7.301l6.543,7.362
				c0,0-44.053,3.018-85.211,31.505L898.099,520.721z"/>
			<g>
				<path style="fill:#FFB93E;" d="M888.854,522.91c0,0-7.067,1.456-17.658,3.456c-28.116,5.311-81.05,14.449-92.485,10.321
					c-17.967-6.484-0.327-65.512,12.015-77.022C803.07,448.163,888.854,522.91,888.854,522.91z"/>
				<g>
					<path style="fill:#FFB93E;" d="M975.435,427.75c6.392,11.016-86.417,98.97-86.417,98.97s0.188-6.078,0.603-15.638
						c0,0,0.002-0.009,0.005-0.018c1.519-34.914,6.095-116.288,15.837-118.448c0.978-0.219,2.197-0.252,3.613-0.124
						C925.659,394.007,969.549,417.603,975.435,427.75z"/>
					<path style="fill:#F69B34;" d="M911.675,403.322c-2.805,13.913-21.751,106.301-22.049,107.742
						c1.519-34.914,6.095-116.288,15.837-118.448c0,0,1.846-0.678,3.613-0.124C911.21,393.167,913.224,395.64,911.675,403.322z"/>
				</g>
				<path style="fill:#F69B34;" d="M871.214,526.36l-0.018,0.006c-28.116,5.311-81.05,14.449-92.485,10.321
					c-7.932-10.125,2.341-14.61,9.774-18C795.912,515.298,871.214,526.36,871.214,526.36z"/>
				<path style="fill:#F69B34;" d="M869.577,533.443c0,0,1.464-16.085,13.333-20.927c12.396-5.057,24.823,8.139,24.823,8.139
					L869.577,533.443z"/>
			</g>
			
				<rect x="768.993" y="536.394" transform="matrix(0.9482 -0.3178 0.3178 0.9482 -130.0055 302.7653)" style="fill:#FFA15A;" width="188.052" height="26.95"/>
			
				<rect x="950.333" y="495.251" transform="matrix(0.9482 -0.3178 0.3178 0.9482 -110.5664 339.6375)" style="fill:#F78639;" width="70.879" height="26.95"/>
			<path style="fill:#FFBE55;" d="M875.11,529.225c0,0-38.63,0.642-59.745,15.854c-24.337,17.534-11.494,50.511-11.494,50.511
				l5.508-4.767l9.98,1.155c0,0-10.44-35.978,10.041-48.369C847.109,532.894,875.11,529.225,875.11,529.225z"/>
			
				<rect x="875.956" y="534.426" transform="matrix(0.9482 -0.3178 0.3178 0.9482 -155.4768 313.3844)" style="fill:#FFB93E;" width="13.714" height="197.634"/>
		</g>
		<g>
			<path style="fill:#233862;" d="M2133.281,894.334c0,0-25.507,15.025-9.855,44.139c0,0-22.331-4.087-27.154-10.755
				c0,0,0.563,2.776,1.39,4.177c0,0-20.53-4.653-27.246-13.219c-6.717-8.566,26.225-111.191,79.592-84.614
				c0,0,48.801,9.055,29.687,63.234c-19.113,54.179-1.05,58.963-1.05,58.963s-5.68,1.146-8.104,0.504c0,0-3.188-2.291-3.368-4.436
				c0,0-0.115,3.264,0.535,4.484c0,0-19.988-3.316-27.775-13.253S2127.479,905.019,2133.281,894.334z"/>
			<path style="fill:#FFB27D;" d="M2096.452,981.558c-0.034,0.011-0.057,0.023-0.091,0.034
				C2096.203,981.569,2096.236,981.558,2096.452,981.558z"/>
			<path style="fill:#FFB27D;" d="M2158.448,963.71c0.748,6.717,1.646,12.742,2.042,15.612c0.896,6.434-60.146,2.246-64.038,2.235
				c2.712-1.18,10.994-27.446,13.615-37.465c3.177-12.152,5.673-25.279,5.673-25.279l43.104,2.723l2.564,0.159
				c-1.589,5.878-2.723,11.426-3.506,16.577c-0.103,0.692-0.204,1.396-0.295,2.077
				C2156.825,946.067,2157.518,955.416,2158.448,963.71z"/>
			<path style="fill:#233862;" d="M2109.796,914.467c0,0-6.988-22.162-5.574-39.156c1.009-12.133,18.282-53.522,59.808-35.91
				c0,0,12.209,4.554,21.886,15.632c7.695,8.81,17.603,26.056-7.442,59.533l-7.28,11.622L2109.796,914.467z"/>
			<path style="fill:#ED975D;" d="M2158.448,963.71c-30.153-8.833-42.947-43.662-42.947-43.662
				c12.753,0.375,29.365,9.227,42.402,18.224c-0.103,0.692-0.204,1.396-0.295,2.077
				C2156.825,946.067,2157.518,955.416,2158.448,963.71z"/>
			<path style="fill:#FFB27D;" d="M2160.58,951.474c0,0-54.475-13.464-45.567-47.259c8.907-33.795,7.875-58.292,43.032-51.125
				c35.156,7.168,38.488,21.837,38.259,33.84C2196.074,898.934,2174.979,954.106,2160.58,951.474z"/>
			<path style="fill:#233862;" d="M2182.967,858.802c0,0-25.344,35.705-49.686,35.532c-24.342-0.173-32.611-8.896-32.611-8.896
				s21.158-9.259,31.203-32.54C2131.873,852.898,2176.759,836.972,2182.967,858.802z"/>
			<path style="fill:#233862;" d="M2178.434,861.046c0,0,8.747,11.785,9.174,21.104c0.426,9.319-3.046,27.352,2.275,28.116
				c0,0,18.32-23.979,9.781-42.547C2190.609,848.028,2178.434,861.046,2178.434,861.046z"/>
			<path style="fill:#233862;" d="M2180.14,862.93c0,0-21.569,38.706-53.845,44.386c0,0,35.508-17.888,45.203-44.641
				S2180.14,862.93,2180.14,862.93z"/>
			<path style="fill:#FFFFFF;" d="M2152.078,929.809c0,0,0.68,5.145,3.962,6.361c3.28,1.216,11.994,3.42,12.877,2.875
				s4.147-4.557,4.147-4.557S2159.336,929.223,2152.078,929.809z"/>
			<path style="fill:#FFB27D;" d="M2131.739,1446.763c-0.692,2.894-1.385,5.753-2.065,8.589
				c-4.107,17.065-7.931,32.893-10.336,46.134c-3.132,17.235-3.869,30.057,0.238,35.445c16.917,22.183,0,198.207,0,198.207
				l-19.255,19.833c0,0-33.471-173.789-42.548-201.021c-4.131-12.379-10.144-65.252-15.454-119.226
				c-0.272-2.7-0.533-5.4-0.794-8.102c-0.919-9.439-1.804-18.846-2.655-28.024c-4.765-51.069-8.328-94.798-8.328-94.798
				s35.503-24.962,67.76-27.741c19.005-1.656,36.875,4.391,45.702,27.741C2156.859,1337.771,2143.834,1396.432,2131.739,1446.763z"
				/>
			<path style="fill:#ED975D;" d="M2131.739,1446.763c-26.38-19.05-63.493-52.952-76.962-108.526
				c-2.575-27.628,19.209-53.883,43.524-62.177c19.005-1.656,36.875,4.391,45.702,27.741
				C2156.859,1337.771,2143.834,1396.432,2131.739,1446.763z"/>
			<path style="fill:#FFB27D;" d="M2227.938,1111.1l129.641,33.486v15.137c0,0-129.011-1.513-137.331-15.884
				C2211.926,1129.467,2227.938,1111.1,2227.938,1111.1z"/>
			<path style="fill:#FFB27D;" d="M2357.573,1610.046l-6.059,25.019c0,0-175.367-90.577-198.048-107.971
				c-9.111-6.989-21.149-44.942-32.303-87.876c-16.61-63.993-31.247-139.048-31.247-139.048s24.587-94.548,90.395-36.682
				c39.383,34.628,33.256,101.355,28.944,153.253c-2.87,34.821-4.936,62.971,8.124,70.267
				c25.473,14.217,100.221,79.707,123.878,124.763L2357.573,1610.046z"/>
			<path style="fill:#FFB27D;" d="M2060.09,1189.764c-45.8-11.654-96.145-82.707-96.145-82.707l12.896-11.186
				c13.352,15.74,68.864,42.851,68.864,42.851c-0.298-14.405,0.079-27.544,0.988-39.502c6.16-81.276,36.8-108.355,45.163-114.297
				c1.349-0.964,2.124-1.367,2.124-1.367s0.031,0.59,0.078,1.709c0.123,2.414,0.345,7.281,0.571,13.958
				C2096.33,1048.969,2098.36,1199.514,2060.09,1189.764z"/>
			<path style="fill:#FFFFFF;" d="M2096.357,1092.223c-2.373,57.981-11.047,115.396-36.291,111.701
				c-30.942-4.516-39.003-33.396-40.646-54.866c-1.02-13.363,0.451-23.854,0.451-23.854s15.229-0.07,17.694-2.34
				c11.696-10.804,8.223-116.762,14.013-127.763c5.79-11.001,43.355-18.065,43.355-18.065S2098.721,1034.912,2096.357,1092.223z"/>
			<path style="fill:#DFEBFD;" d="M2096.357,1092.223c-2.373,57.981-11.047,115.396-36.291,111.701
				c-30.942-4.516-39.003-33.396-40.646-54.866c7.597-0.382,20.972-2.235,26.286-10.341c7.608-11.604,31.348-86.295,31.348-86.295
				S2086.388,1069.189,2096.357,1092.223z"/>
			<path style="fill:#FFFFFF;" d="M2291.557,1111.1c8.387,11.911,3.768,35.008-13.822,53.602
				c-10.924,11.547-25.719,18.377-49.797,14.828c-10.495-1.547-39.822-18.104-42.906-38.293c-0.552-3.66-0.862-5.8-0.862-5.8
				s-13.351,13.369-13.85,15.894c-0.226,1.136-1.376,11.236-1.558,12.618c-0.208,1.67,0.98,7.804,0.98,7.804
				s-63.786,27.896-116.518-3.871c0,0-15.036-128.847-4.238-150.286c5.367-10.651,35.467-31.397,45.947-40.56
				c2.353-2.062,4.747-8.275,4.098-12.277c-0.531-3.381,3.359-9.082,6.619-8.044c6.302,2.018,24.137,10.843,36.686,7.477
				c6.25-1.661,14.178-8.886,20.236-7.232c7.405,2.022-0.417,19.845,3.78,20.077c5.783,0.285,37.024,6.534,39.646,11.573
				c0.912,1.755,9.886,25.527,21.139,56.987c0,0,0.01,0.023,0.018,0.082C2248.274,1104.693,2279.247,1093.619,2291.557,1111.1z"/>
			<path style="fill:#DFEBFD;" d="M2184.169,1135.437c0,0-1.554-49.15-5.524-48.551c-3.972,0.601-61.27,55.753-47.654,77.815
				C2144.605,1186.765,2184.169,1135.437,2184.169,1135.437z"/>
			<path style="fill:#2B478B;" d="M2227.938,1336.966c0,0-22.084,6.821-54.615,11.322c-40.282,5.57-96.593,7.577-146.881-11.322
				c0,0-4.145-74.832,7.771-113.841c11.917-39.019,17.486-57.682,17.486-57.682s47.74,11.971,96.225,2.688
				c6.812-1.295,13.633-3.021,20.336-5.256c0,0,29.909,63.499,38.134,90.71S2227.938,1336.966,2227.938,1336.966z"/>
			<path style="fill:#233862;" d="M2227.938,1336.966c0,0-22.084,6.821-54.615,11.322c-59.657-33.827-30.568-176.174-30.568-176.174
				c1.771-1.436,3.498-2.763,5.17-3.983c6.812-1.295,13.633-3.021,20.336-5.256c0,0,29.909,63.499,38.134,90.71
				S2227.938,1336.966,2227.938,1336.966z"/>
			<g>
				<path style="fill:#B64C41;" d="M2102.396,1179.529c-35.365,0-49.942-12.171-51.021-13l-2.287-16.655
					c0.339,0.251,47.793,28.745,121.231,1.456l-1.558,12.618C2140.52,1174.443,2120.766,1179.529,2102.396,1179.529z"/>
			</g>
			<path style="fill:#FFB27D;" d="M2357.578,1144.586c0,0,23.784-11.716,33.24-12.85c9.455-1.135,25.34-1.514,25.34,0
				c0,1.513-17.02,12.085-21.559,12.85c-4.538,0.766-13.237,7.195-10.59,7.951c2.647,0.757,16.642-2.458,16.83,0
				c0.189,2.459-8.51,3.972-10.021,5.862c-1.514,1.892-6.809,4.16-15.318,3.025c-8.509-1.134-17.922-1.702-17.922-1.702V1144.586z"
				/>
			<path style="fill:#FFB27D;" d="M1976.817,1095.828l-12.928,11.278c0,0-22.968-16.778-24.067-23.654v-0.688
				c0-7.152,14.578-22.006,26.681-22.557c1.237,0,2.338,0.275,3.3,0.826c6.45,4.032,7.214,20.836,7.161,29.531
				C1976.945,1093.736,1976.817,1095.828,1976.817,1095.828z"/>
			<path style="fill:#2B478B;" d="M2357.573,1610.046l-6.059,25.019c0,0-175.367-90.577-198.048-107.971
				c-9.111-6.989-21.149-44.942-32.303-87.876c14.966,3.074,47.291,4.708,88.092-22.477c-2.87,34.821-4.936,62.971,8.124,70.267
				c25.473,14.217,100.221,79.707,123.878,124.763L2357.573,1610.046z"/>
			<path style="fill:#233862;" d="M2392.24,1619.757c0,0-0.054-0.008-0.157-0.036c-0.785-0.196-4.393-1.386-6.782-7.123
				c-1.576-3.777-2.05-6.879-3.494-10.615l-5.922-10.22c-6.193-8.155-8.365-6.245-8.365-6.245s-1.619,2.076-4.012,4.814
				c-3.951,4.518-10.01,10.82-14.298,12.438c-3.046,1.143-4.954,3.036-6.125,4.795c-1.493,2.208-1.827,4.201-1.827,4.201
				s12.717,2.217,11.608,8.482c-2.159,12.128-1.649,14.334-1.429,14.731l0.076,0.082c0,0,21.688,11.352,28.622,13.58
				c12.341,3.952,18.786,12.341,22.787,16.173c1.619,1.553,3.862,2.268,6.07,1.912c3.253-0.513,7.475-1.558,8.4-3.553
				L2392.24,1619.757z"/>
			<path style="fill:#233862;" d="M2119.576,1536.931c16.917,22.183,0,198.207,0,198.207l-19.255,19.833
				c0,0-33.471-173.789-42.548-201.021c-4.131-12.379-10.144-65.252-15.454-119.226c16.044,7.159,55.188,22.749,87.354,20.627
				c-4.107,17.065-7.931,32.893-10.336,46.134C2116.206,1518.721,2115.469,1531.542,2119.576,1536.931z"/>
			<path style="fill:#233862;" d="M2138.927,1763.793l-10.388,5.623c-3.776,1.336-6.891,1.72-10.712,3.186
				c-5.804,2.223-9.889,6.594-10.082,7.38c-2.932,11.914-7.092,11.157-7.092,11.157l-41.731,0.392
				c-1.968-0.983,1.367-9.407,2.966-10.981c3.945-3.888,15.753-1.932,20.061-14.153c2.429-6.867,14.402-28.216,14.402-28.216
				l0.085-0.074c0.403-0.21,2.623-0.654,14.684,1.854c6.231,1.289,8.814-11.357,8.814-11.357s1.983,0.391,4.147,1.948
				c1.724,1.221,3.562,3.184,4.614,6.262c1.493,4.332,7.618,10.57,12.019,14.65c2.669,2.472,4.697,4.149,4.697,4.149
				S2147.258,1757.838,2138.927,1763.793z"/>
		</g>
		<g>
			<rect x="1542.181" y="1282.415" style="fill:#4A75CB;" width="177.23" height="510.485"/>
			<rect x="1073.964" y="1282.415" style="fill:#739AF0;" width="468.217" height="510.485"/>
			
				<rect x="1290.208" y="1315.892" transform="matrix(-1.836970e-16 1 -1 -1.836970e-16 2858.0732 241.9276)" style="fill:#AFCDFB;" width="35.729" height="468.217"/>
			
				<rect x="1612.931" y="1461.385" transform="matrix(-1.836970e-16 1 -1 -1.836970e-16 3180.7966 -80.7957)" style="fill:#88B3FF;" width="35.729" height="177.23"/>
			<path style="fill:#4A75CB;" d="M1415.518,1274.563c0,0,143.546-65.153,243.604-40.396l-19.978,13.367l10.069,23.604
				c0,0-111.318-29.016-236.574,7.275L1415.518,1274.563z"/>
			<g>
				<path style="fill:#72A9F7;" d="M1390.929,1272.061c0,0-18.663-2.256-46.481-6.082c-73.849-10.158-212.173-31.41-237.001-51.076
					c-39.013-30.893,53.432-162.1,93.447-180.311C1240.908,1016.396,1390.929,1272.061,1390.929,1272.061z"/>
				<path style="fill:#72A9F7;" d="M1683.588,1108.677c6.668,32.505-295.407,172.93-295.407,172.93s5.497-14.857,14.436-38.13
					c0,0,0.013-0.021,0.026-0.04c32.659-84.985,111.335-282.207,137.188-279.478c2.597,0.269,5.636,1.198,9.028,2.685
					C1588.567,984.116,1677.447,1078.741,1683.588,1108.677z"/>
				<path style="fill:#4A75CB;" d="M1546.312,995.547c-18.447,32.045-141.739,244.577-143.669,247.889
					c32.659-84.985,111.335-282.207,137.188-279.478c0,0,5.121-0.146,9.028,2.685
					C1553.571,970.078,1556.497,977.852,1546.312,995.547z"/>
				<path style="fill:#4A75CB;" d="M1344.497,1265.979h-0.05c-73.849-10.158-212.173-31.41-237.001-51.076
					c-11.211-31.577,17.877-34.15,39.046-36.373C1167.645,1176.308,1344.497,1265.979,1344.497,1265.979z"/>
				<path style="fill:#4A75CB;" d="M1334.59,1282.119c0,0,16.934-38.523,50.263-40.656c34.808-2.228,54.579,40.656,54.579,40.656
					H1334.59z"/>
			</g>
			<rect x="1059.769" y="1282.415" style="fill:#88B3FF;" width="489.923" height="70.212"/>
			<rect x="1549.692" y="1282.415" style="fill:#3969B7;" width="184.658" height="70.212"/>
			<path style="fill:#4A75CB;" d="M1351.691,1276.534c0,0-95.956-30.396-160.707-10.3c-74.635,23.164-70.212,115.258-70.212,115.258
				l17.553-7.217l23.696,11.117c0,0,3.998-97.517,64.849-111.169C1279.485,1262.419,1351.691,1276.534,1351.691,1276.534z"/>
			<rect x="1266.735" y="1282.415" style="fill:#AFCDFB;" width="35.729" height="514.888"/>
		</g>
		<g>
			<path style="fill:#233862;" d="M506.968,1072.802c0,0,131.975,96.716,164.258,94.385s146.61-72.875,146.61-72.875l-24.186-28.756
				c0,0-103.543,38.361-122.501,27.785c-18.958-10.576-93.007-100.348-124.076-95.556
				C516.004,1002.577,485.308,1038.03,506.968,1072.802z"/>
			<g>
				<path style="fill:#233862;" d="M429.138,1799.503h-39.452c-4.967-2.698-9.392-8.871-10.79-18.077
					c-1.927-12.711-16.172-19.641-19.255-30.039c-3.076-10.391,12.711-25.021,12.711-25.021l2.641-3.404l2.747-3.533l26.185,6.166
					c0,0,0.649,6.237,1.042,14.181c0.286,5.73,0.435,12.354,0.114,18.163c-0.771,13.859,3.875,28.789,16.193,31.487
					C430.38,1791.417,429.973,1796.819,429.138,1799.503z"/>
				<path style="fill:#233862;" d="M658.098,1799.503h-90.222c-4.339-5.296-2.74-24.836-2.084-31.216
					c0.136-1.285,0.229-2.034,0.229-2.034s30.809-24.644,35.041-5.773c0.128,0.592,0.285,1.17,0.457,1.741
					c5.331,17.648,29.246,25.671,43.056,27.904C653.552,1791.581,656.87,1796.248,658.098,1799.503z"/>
				<path style="fill:#F99746;" d="M640.907,1295.892c0,0-4.678,58.368-10.177,128.529c-7.474,95.308-16.46,212.378-17.35,234.556
					c-1.536,38.512-7.705,100.113-7.705,100.113s-14.624,14.635-43.894,8.467c0,0-26.082-87.938-33.533-180.982
					c-0.116-1.524-0.231-3.061-0.347-4.597c-6.931-94.719-17.708-294.171-17.708-294.171L640.907,1295.892z"/>
				<path style="fill:#ED7D2B;" d="M640.907,1295.892c0,0-4.678,58.368-10.177,128.529L528.25,1586.574
					c-0.116-1.524-0.231-3.061-0.347-4.597c-6.931-94.719-17.708-294.171-17.708-294.171L640.907,1295.892z"/>
				<path style="fill:#F99746;" d="M619.543,1302.823c0,0-84.323,211.385-139.768,310.724
					c-55.445,99.34-72.772,127.062-72.772,127.062s-31.766-12.706-34.653-21.369c0,0,21.203-191.779,58.333-238.529
					c20.981-26.417,45.627-105.692,46.782-133.415c1.155-27.723,7.508-82.59,7.508-82.59L619.543,1302.823z"/>
			</g>
			<path style="fill:#FFB27D;" d="M563.96,1001.847c-31.469,14.267-91.432-6.772-91.432-6.772s27.434-26.273,20.182-73.151
				l27.752,17.336l18.851,11.774c0,0,0.913,8.171,0.759,22.703c-0.042,3.822-0.154,8.091-0.38,12.769
				C554.664,992.523,563.96,1001.847,563.96,1001.847z"/>
			<path style="fill:#ED975D;" d="M539.313,951.034c0,0,0.913,8.171,0.759,22.703c-19.432-0.972-44.737-29.142-44.737-29.142
				c9.355-3.967,17.783-5.493,25.127-5.336L539.313,951.034z"/>
			<path style="fill:#FFB27D;" d="M549.224,949.054c0,0-52.955,15.489-62.093-17.637c-9.139-33.126-22.128-53.436,11.296-64.727
				c33.424-11.291,43.508-0.47,49.248,9.845C553.414,886.85,562.763,944.17,549.224,949.054z"/>
			<path style="fill:#2B478B;" d="M644.195,1275.075c1.651,15.267,2.419,24.776,2.052,25.151c-0.889,0.944-1.969,1.57-3.283,1.729
				c-12.299,1.317-47.303,12.449-77.992,12.997c-25.854,0.627-49.382-4.217-74.986-12.185c-3.395-1.055-11.303-4.124-11.563-7.75
				c-0.371-3.954-0.666-9.734-1.046-17.002c-1.3-25.277-3.497-68.756-12.423-118.158c-1.639-9.193-3.015-18.358-4.14-27.4
				c-8.381-67.389-2.156-128.302,22.285-151.621c2.105-1.917,17.016,3.27,30.727,8.094c12.677,4.465,24.709,3.675,35.735,0.022
				l12.506,8.627c15.308,11.12,32.471,26.676,42.196,52.259c8.286,21.77,16.43,61.841,23.286,103.555
				c3.105,18.913,6.077,37.996,8.432,56.162l0.079,0.651c0.38,1.782,0.618,3.76,0.835,5.562c0.437,3.228,0.854,6.397,1.266,9.521
				C640.71,1244.693,642.772,1261.999,644.195,1275.075z"/>
			<path style="fill:#2B478B;" d="M486.695,928.175c0,0,5.433-1.595,3.618-9.125c-1.814-7.53-3.007-17.515,3.428-16.402
				s7.342,6.047,9.544,2.836c2.202-3.211,0.773-15.449,19.148-18.527c18.375-3.079,26.659,2.448,34.796-2.365
				c8.137-4.814,7.023-17.874,7.023-17.874s-1.884,4.939-5.397,6.86c0,0,11.972-21.335-6.245-32.779
				c-18.217-11.444-34.079-0.603-43.615,1.136c-21.007,3.832-34.524,6.749-39.762,21.487
				C463.997,878.16,471.503,916.427,486.695,928.175z"/>
			<path style="fill:#233862;" d="M644.195,1275.075c-2.597,0.479-47.757,8.587-78.459-11.637
				c-31.612-20.822-68.644-144.272-68.644-144.272s71.001,78.964,72.379,82.077c1.153,2.622,52.355,18.9,68.688,24.046
				C640.71,1244.693,642.772,1261.999,644.195,1275.075z"/>
			<g>
				<g>
					
						<rect x="663.426" y="881.364" transform="matrix(0.9999 -0.0142 0.0142 0.9999 -14.9521 12.0435)" style="fill:#ED7D2B;" width="351.26" height="351.26"/>
					
						<rect x="588.473" y="882.431" transform="matrix(0.9999 -0.0142 0.0142 0.9999 -14.9749 10.9774)" style="fill:#F99746;" width="351.26" height="351.26"/>
				</g>
				<g>
					<path style="fill:#FFFFFF;" d="M632.022,992.792c-0.472-33.152,22.253-60.271,56.41-60.756
						c33.822-0.481,56.97,25.649,57.446,59.136c0.467,32.818-22.252,60.271-56.41,60.757
						C655.646,1052.41,632.499,1026.279,632.022,992.792z M825.768,932.761l39.85-0.567l-167.785,236.846l-39.85,0.567
						L825.768,932.761z M710.717,991.673c-0.224-15.739-9.126-29.346-22.521-29.155c-14.065,0.2-21.241,13.701-21.012,29.775
						c0.224,15.739,9.125,29.344,22.521,29.153C703.769,1021.246,710.941,1007.412,710.717,991.673z M777.723,1110.627
						c-0.472-33.151,22.254-60.271,56.411-60.756c33.822-0.481,56.97,25.649,57.446,59.137
						c0.467,32.816-22.253,60.271-56.411,60.756C801.348,1170.245,778.199,1144.116,777.723,1110.627z M856.418,1109.508
						c-0.224-15.739-9.126-29.344-22.521-29.153c-14.065,0.2-21.241,13.699-21.013,29.772c0.224,15.739,9.126,29.346,22.521,29.155
						C849.47,1139.082,856.642,1125.247,856.418,1109.508z"/>
				</g>
			</g>
			<path style="fill:#FFB27D;" d="M762.898,1247.286c-11.855-0.223-27.064-5.319-31.938-7.744
				c-8.241-4.099-12.438-8.071-12.438-8.071l1.25-7.806l1.5-9.323c0,0,0.916-0.146,2.438-0.303c1.513-0.161,3.646-0.323,6.061-0.364
				c0,0,3.903,1.183,7.13-1.701c3.22-2.882,9.159-4.835,13.656-3.758c4.49,1.08,14.15,0.073,14.456,1.646
				c0.757,3.8-13.317,3.108-14.962,5.491c-1.489,2.155-0.133,3.614,0.143,3.875c0.021,0.015,0.035,0.032,0.056,0.047
				c8.24,8.309,36.601,11.325,35.467,17.924C785.289,1239.664,767.915,1247.381,762.898,1247.286z"/>
			<path style="fill:#2B478B;" d="M475.468,1071.87c0,0,64.96,150.171,93.992,164.483c29.032,14.313,161.5,3.188,161.5,3.188
				l0.874-25.632c0,0-114.094-22.596-125.103-41.307c-11.009-18.71-29.504-133.602-58.732-145.177
				C518.771,1015.852,474.361,1030.919,475.468,1071.87z"/>
		</g>
		<g>
			<path style="fill:#FFB93E;" d="M2772.861,1473.88c-1.438,0.877-2.899,1.726-4.385,2.545c-0.504,0.278-1.006,0.552-1.51,0.814
				c-1.15,0.613-2.3,1.203-3.46,1.778c-55.57,27.291-123.351,6.345-153.562-48.454c-28.814-52.269-13.326-117.011,33.953-151.007
				c3.771-2.712,7.74-5.229,11.908-7.523c1.496-0.824,3.005-1.615,4.52-2.362c1.471-0.733,2.957-1.434,4.447-2.095
				c4.566-2.037,9.211-3.752,13.897-5.156c6.968-2.099,14.041-3.513,21.129-4.261c21.981-2.328,44.098,1.688,63.707,11.281
				c20.808,10.174,38.798,26.63,50.831,48.454C2844.629,1372.852,2825.964,1441.581,2772.861,1473.88z"/>
			<g>
				<path style="fill:#FFA412;" d="M2712.9,1481.776c-38.784,0-74.497-21.079-93.202-55.012
					c-13.71-24.871-16.914-53.592-9.022-80.873c7.892-27.28,25.935-49.854,50.805-63.564c15.7-8.654,33.417-13.229,51.235-13.229
					c38.784,0,74.497,21.079,93.202,55.012c13.71,24.871,16.914,53.592,9.022,80.873c-7.892,27.28-25.935,49.854-50.805,63.564
					C2748.436,1477.201,2730.719,1481.776,2712.9,1481.776z M2712.716,1275.44c-16.75,0-33.408,4.303-48.173,12.441
					c-23.387,12.892-40.354,34.119-47.774,59.772s-4.408,52.661,8.484,76.048c17.59,31.909,51.174,51.731,87.647,51.731
					c16.75,0,33.408-4.302,48.173-12.441c23.387-12.892,40.354-34.119,47.774-59.772s4.408-52.661-8.484-76.048
					C2782.773,1295.263,2749.189,1275.44,2712.716,1275.44z"/>
			</g>
			<polygon style="fill:#FFA412;" points="2712.809,1297.152 2736.256,1344.661 2788.686,1352.279 2750.746,1389.261 
				2759.703,1441.479 2712.809,1416.824 2665.914,1441.479 2674.87,1389.261 2636.932,1352.279 2689.361,1344.661 			"/>
		</g>
		<g>
			<path style="fill:#FFB93E;" d="M2842.791,1189.896c-0.812,0.495-1.637,0.974-2.475,1.437c-0.284,0.157-0.568,0.311-0.852,0.46
				c-0.65,0.346-1.299,0.679-1.953,1.003c-31.363,15.403-69.618,3.581-86.668-27.347c-16.264-29.499-7.522-66.04,19.162-85.227
				c2.129-1.53,4.367-2.95,6.721-4.246c0.844-0.466,1.696-0.911,2.551-1.333c0.83-0.414,1.668-0.81,2.51-1.183
				c2.578-1.149,5.198-2.117,7.844-2.91c3.933-1.185,7.925-1.982,11.925-2.404c12.406-1.314,24.888,0.952,35.956,6.367
				c11.743,5.741,21.896,15.029,28.688,27.347C2883.296,1132.876,2872.761,1171.666,2842.791,1189.896z"/>
			<g>
				<path style="fill:#FFA412;" d="M2808.95,1194.353c-21.89,0-42.046-11.897-52.604-31.049
					c-7.738-14.036-9.546-30.246-5.092-45.644c4.454-15.396,14.638-28.138,28.674-35.875c8.861-4.885,18.86-7.467,28.916-7.467
					c21.89,0,42.046,11.897,52.603,31.049c7.738,14.037,9.547,30.247,5.093,45.644s-14.637,28.138-28.674,35.875
					C2829.005,1191.771,2819.006,1194.353,2808.95,1194.353z M2808.845,1077.898c-9.453,0-18.854,2.428-27.188,7.021
					c-13.199,7.276-22.775,19.257-26.964,33.735s-2.488,29.721,4.788,42.92c9.929,18.01,28.884,29.197,49.469,29.197
					c9.453,0,18.854-2.428,27.188-7.021c13.199-7.276,22.775-19.257,26.964-33.735c4.188-14.478,2.487-29.721-4.789-42.92
					C2848.385,1089.086,2829.43,1077.898,2808.845,1077.898z"/>
			</g>
			<polygon style="fill:#FFA412;" points="2808.897,1090.152 2822.131,1116.966 2851.722,1121.266 2830.31,1142.138 
				2835.364,1171.608 2808.897,1157.694 2782.431,1171.608 2787.485,1142.138 2766.073,1121.266 2795.664,1116.966 			"/>
		</g>
		<g>
			<path style="fill:#CDE0FB;" d="M1713.154,336.498c-0.481,0.59-0.977,1.172-1.486,1.745c-0.173,0.194-0.347,0.387-0.521,0.575
				c-0.398,0.435-0.8,0.859-1.208,1.279c-19.588,19.997-51.64,21.264-72.765,2.444c-20.15-17.95-23.287-47.886-8.243-69.494
				c1.2-1.724,2.513-3.394,3.945-5c0.514-0.577,1.038-1.141,1.571-1.688c0.518-0.534,1.045-1.056,1.581-1.562
				c1.641-1.556,3.362-2.985,5.149-4.29c2.655-1.943,5.459-3.61,8.368-4.995c9.022-4.3,19.057-5.916,28.861-4.775
				c10.402,1.208,20.549,5.518,28.963,13.012C1728.555,282.624,1730.937,314.737,1713.154,336.498z"/>
			<g>
				<path style="fill:#AFCDFB;" d="M1672.676,351.633c-11.796,0-23.036-4.27-31.916-12.181
					c-9.588-8.542-15.274-20.305-16.014-33.125c-0.74-12.819,3.557-25.159,12.098-34.746c8.542-9.588,20.307-15.275,33.125-16.015
					c12.811-0.749,25.159,3.557,34.747,12.099c9.588,8.542,15.274,20.305,16.015,33.125c0.739,12.819-3.558,25.159-12.1,34.747
					c-8.541,9.587-20.305,15.275-33.124,16.014C1674.56,351.606,1673.615,351.633,1672.676,351.633z M1672.797,258.353
					c-0.886,0-1.771,0.025-2.662,0.077c-12.055,0.695-23.117,6.044-31.149,15.059c-8.032,9.015-12.072,20.619-11.377,32.674
					c0.695,12.054,6.044,23.117,15.06,31.148c9.016,8.033,20.62,12.074,32.674,11.377c12.055-0.695,23.115-6.044,31.148-15.059
					c8.032-9.016,12.072-20.619,11.377-32.674c-0.695-12.054-6.044-23.116-15.059-31.148
					C1694.459,262.369,1683.888,258.353,1672.797,258.353z"/>
			</g>
			<polygon style="fill:#AFCDFB;" points="1660.959,270.18 1678.104,286.91 1701.605,282.27 1690.993,303.746 1702.669,324.663 
				1678.965,321.206 1662.68,338.773 1658.642,315.161 1636.901,305.102 1658.109,293.965 			"/>
		</g>
		<g>
			<path style="fill:#CDE0FB;" d="M1558.876,1756.963c-0.859,1.054-1.744,2.093-2.656,3.116c-0.309,0.347-0.618,0.69-0.931,1.026
				c-0.711,0.775-1.429,1.534-2.157,2.283c-34.987,35.72-92.238,37.982-129.973,4.366c-35.992-32.063-41.595-85.533-14.724-124.13
				c2.144-3.08,4.489-6.063,7.048-8.931c0.917-1.029,1.854-2.037,2.807-3.014c0.923-0.954,1.867-1.886,2.824-2.79
				c2.931-2.778,6.006-5.333,9.198-7.662c4.743-3.471,9.75-6.448,14.947-8.923c16.115-7.681,34.038-10.565,51.551-8.529
				c18.581,2.157,36.705,9.855,51.734,23.242C1586.384,1660.732,1590.639,1718.093,1558.876,1756.963z"/>
			<g>
				<path style="fill:#AFCDFB;" d="M1486.573,1783.997c-21.069,0-41.146-7.627-57.007-21.757
					c-17.125-15.257-27.284-36.269-28.604-59.168c-1.322-22.897,6.354-44.938,21.61-62.063s36.27-27.284,59.167-28.604
					c22.881-1.339,44.938,6.354,62.064,21.61c17.126,15.257,27.284,36.269,28.606,59.166c1.32,22.897-6.356,44.939-21.613,62.064
					s-36.269,27.283-59.166,28.604C1489.939,1783.949,1488.253,1783.997,1486.573,1783.997z M1486.79,1617.382
					c-1.582,0-3.164,0.045-4.755,0.137c-21.532,1.242-41.292,10.795-55.639,26.898c-14.347,16.103-21.563,36.83-20.321,58.361
					s10.795,41.291,26.899,55.638c16.104,14.348,36.833,21.565,58.361,20.321c21.532-1.242,41.29-10.795,55.637-26.899
					c14.348-16.104,21.563-36.829,20.321-58.361c-1.242-21.53-10.795-41.29-26.897-55.637
					C1525.482,1624.554,1506.601,1617.382,1486.79,1617.382z"/>
			</g>
			<polygon style="fill:#AFCDFB;" points="1465.646,1638.506 1496.271,1668.388 1538.249,1660.1 1519.293,1698.46 
				1540.147,1735.821 1497.807,1729.648 1468.718,1761.026 1461.506,1718.852 1422.674,1700.883 1460.557,1680.99 			"/>
		</g>
		<path style="fill:#2E3552;" d="M2898.242,1798.847H146.146c-1.719,0-3.125-1.406-3.125-3.125v-1.065
			c0-1.72,1.406-3.126,3.125-3.126h2752.096c1.719,0,3.125,1.406,3.125,3.126v1.065
			C2901.367,1797.44,2899.961,1798.847,2898.242,1798.847z"/>
		<g>
			<path style="fill:#6BB7BF;" d="M1854.164,1149.372c0,0-13.049,8.899-27.559,7.435c-10.771-1.086-21.383-11.059-21.794-11.72
				l-8.586,14.926c0,0,19.634,11.904,36.46,8.644c5.156-0.999,13.519-6.121,17.295-9.959
				C1854.141,1154.467,1854.164,1149.372,1854.164,1149.372z"/>
			<path style="fill:#86D1CD;" d="M1853.81,1118.282l21.569-8.937c0,0-2.958,44.835-40.006,58.533
				C1835.373,1167.879,1858.777,1137.189,1853.81,1118.282z"/>
		</g>
		<path style="fill:#F99746;" d="M2005.154,1654.2c0,0,9.416,10.67,18.682,10.461c0,0,1.237,11.667-2.111,14.771
			c0,0-15.859-2.898-19.68-8.697C2002.045,1670.735,1998.842,1656.82,2005.154,1654.2z"/>
		<g>
			<path style="fill:#CDE0FB;" d="M1857.37,1507.514c0,0-8.529-10.353-8.405-22.738c0.091-9.193,7.711-18.936,8.238-19.333
				l-13.285-6.115c0,0-8.56,17.521-4.509,31.502c1.241,4.284,6.216,10.963,9.753,13.862
				C1853.06,1507.885,1857.37,1507.514,1857.37,1507.514z"/>
			<path style="fill:#CDE0FB;" d="M1883.639,1504.825l9.216,17.556c0,0-38.148,0.943-52.581-29.339
				C1840.273,1493.042,1868.028,1510.479,1883.639,1504.825z"/>
		</g>
	</g>
</g>
</svg>
